<svg width="16" height="17" viewBox="0 0 16 17" fill="none" xmlns="http://www.w3.org/2000/svg">
<g id="Frame">
<path id="Vector" d="M11 2H5C4.07205 2.00099 3.18238 2.37006 2.52622 3.02622C1.87006 3.68238 1.50099 4.57205 1.5 5.5V11.5C1.50099 12.428 1.87006 13.3176 2.52622 13.9738C3.18238 14.6299 4.07205 14.999 5 15H11C11.928 14.999 12.8176 14.6299 13.4738 13.9738C14.1299 13.3176 14.499 12.428 14.5 11.5V5.5C14.499 4.57205 14.1299 3.68238 13.4738 3.02622C12.8176 2.37006 11.928 2.00099 11 2ZM8 11.5C7.40666 11.5 6.82664 11.3241 6.33329 10.9944C5.83994 10.6648 5.45542 10.1962 5.22836 9.64805C5.0013 9.09987 4.94189 8.49667 5.05764 7.91473C5.1734 7.33279 5.45912 6.79824 5.87868 6.37868C6.29824 5.95912 6.83279 5.6734 7.41473 5.55764C7.99667 5.44189 8.59987 5.5013 9.14805 5.72836C9.69623 5.95542 10.1648 6.33994 10.4944 6.83329C10.8241 7.32664 11 7.90666 11 8.5C10.9992 9.2954 10.6828 10.058 10.1204 10.6204C9.55798 11.1828 8.7954 11.4992 8 11.5ZM11.75 5.5C11.6017 5.5 11.4567 5.45601 11.3333 5.3736C11.21 5.29119 11.1139 5.17406 11.0571 5.03701C11.0003 4.89997 10.9855 4.74917 11.0144 4.60368C11.0434 4.4582 11.1148 4.32456 11.2197 4.21967C11.3246 4.11478 11.4582 4.04335 11.6037 4.01441C11.7492 3.98547 11.9 4.00032 12.037 4.05709C12.1741 4.11386 12.2912 4.20999 12.3736 4.33332C12.456 4.45666 12.5 4.60166 12.5 4.75C12.5 4.94891 12.421 5.13968 12.2803 5.28033C12.1397 5.42098 11.9489 5.5 11.75 5.5ZM10 8.5C10 8.89556 9.8827 9.28224 9.66294 9.61114C9.44318 9.94004 9.13082 10.1964 8.76537 10.3478C8.39991 10.4991 7.99778 10.5387 7.60982 10.4616C7.22186 10.3844 6.86549 10.1939 6.58579 9.91421C6.30608 9.63451 6.1156 9.27814 6.03843 8.89018C5.96126 8.50222 6.00087 8.10009 6.15224 7.73463C6.30362 7.36918 6.55996 7.05682 6.88886 6.83706C7.21776 6.6173 7.60444 6.5 8 6.5C8.53043 6.5 9.03914 6.71071 9.41421 7.08579C9.78929 7.46086 10 7.96957 10 8.5Z" fill="white"/>
</g>
</svg>
