<svg width="16" height="17" viewBox="0 0 16 17" fill="none" xmlns="http://www.w3.org/2000/svg">
<g id="Icon/Lucide Icon">
<path id="Vector" d="M10.6665 5.8335C11.7274 5.8335 12.7448 6.25492 13.4949 7.00507C14.2451 7.75521 14.6665 8.77263 14.6665 9.8335V14.5002H11.9998V9.8335C11.9998 9.47987 11.8594 9.14074 11.6093 8.89069C11.3593 8.64064 11.0201 8.50016 10.6665 8.50016C10.3129 8.50016 9.97374 8.64064 9.7237 8.89069C9.47365 9.14074 9.33317 9.47987 9.33317 9.8335V14.5002H6.6665V9.8335C6.6665 8.77263 7.08793 7.75521 7.83808 7.00507C8.58822 6.25492 9.60564 5.8335 10.6665 5.8335Z" fill="white"/>
<path id="Vector_2" d="M4.00016 6.5H1.3335V14.5H4.00016V6.5Z" fill="white"/>
<path id="Vector_3" d="M2.66683 4.50016C3.40321 4.50016 4.00016 3.90321 4.00016 3.16683C4.00016 2.43045 3.40321 1.8335 2.66683 1.8335C1.93045 1.8335 1.3335 2.43045 1.3335 3.16683C1.3335 3.90321 1.93045 4.50016 2.66683 4.50016Z" fill="white"/>
</g>
</svg>
