<svg width="16" height="17" viewBox="0 0 16 17" fill="none" xmlns="http://www.w3.org/2000/svg">
<g id="Frame">
<path id="Vector" d="M14.6456 4.845C14.5867 4.61459 14.4739 4.40149 14.3164 4.22327C14.159 4.04505 13.9614 3.90683 13.74 3.82C11.5975 2.9925 8.1875 3 8 3C7.8125 3 4.4025 2.9925 2.26 3.82C2.0386 3.90683 1.84102 4.04505 1.68356 4.22327C1.5261 4.40149 1.41327 4.61459 1.35438 4.845C1.1925 5.46875 1 6.60875 1 8.5C1 10.3913 1.1925 11.5313 1.35438 12.155C1.41318 12.3855 1.52597 12.5988 1.68344 12.7771C1.8409 12.9554 2.03853 13.0937 2.26 13.1806C4.3125 13.9725 7.525 14 7.95875 14H8.04125C8.475 14 11.6894 13.9725 13.74 13.1806C13.9615 13.0937 14.1591 12.9554 14.3166 12.7771C14.474 12.5988 14.5868 12.3855 14.6456 12.155C14.8075 11.53 15 10.3913 15 8.5C15 6.60875 14.8075 5.46875 14.6456 4.845ZM10.0369 8.9075L7.53687 10.6575C7.46209 10.7099 7.37439 10.7408 7.28328 10.7469C7.19218 10.753 7.10115 10.734 7.02006 10.692C6.93898 10.65 6.87095 10.5866 6.82334 10.5087C6.77573 10.4308 6.75037 10.3413 6.75 10.25V6.75C6.75003 6.65854 6.77514 6.56883 6.82261 6.49064C6.87008 6.41246 6.93809 6.3488 7.01923 6.30658C7.10038 6.26437 7.19155 6.24522 7.28282 6.25122C7.37409 6.25722 7.46196 6.28815 7.53687 6.34063L10.0369 8.09063C10.1026 8.13674 10.1563 8.19802 10.1934 8.26928C10.2304 8.34054 10.2498 8.41968 10.2498 8.5C10.2498 8.58032 10.2304 8.65946 10.1934 8.73072C10.1563 8.80198 10.1026 8.86326 10.0369 8.90938V8.9075Z" fill="white"/>
</g>
</svg>
